<svg width="374" height="87" viewBox="0 0 374 87" fill="none" xmlns="http://www.w3.org/2000/svg">
<path d="M0 65.7113V22.1191H12.5933L13.4006 26.6398C15.6609 23.5722 19.8587 20.666 26.1553 20.666C32.7749 20.666 36.9726 23.7336 39.3944 28.4157C41.6547 23.7336 46.8212 20.666 53.1179 20.666C64.4196 20.666 69.9089 27.2856 69.9089 37.1342V65.7113H56.5084V41.009C56.5084 35.5196 53.6022 32.9364 49.4045 32.9364C45.5296 32.9364 41.6547 35.0353 41.6547 42.4621V65.8727H28.2542V41.009C28.2542 35.5196 25.5095 32.9364 21.1503 32.9364C17.2754 32.9364 13.4006 35.0353 13.4006 42.3007V65.7113H0Z" fill="white"/>
<path d="M101.392 20.8274C115.277 20.8274 125.449 30.0302 125.449 43.9151C125.449 57.8 115.277 66.8414 101.392 66.8414C87.3458 66.8414 77.3358 57.6386 77.3358 43.9151C77.3358 30.0302 87.5073 20.8274 101.392 20.8274ZM101.392 54.7324C107.527 54.7324 111.887 50.3732 111.887 43.7536C111.887 37.1341 107.527 32.7749 101.392 32.7749C95.0955 32.7749 90.8978 37.1341 90.8978 43.7536C90.8978 50.3732 95.257 54.7324 101.392 54.7324Z" fill="white"/>
<path d="M126.417 22.1189H140.948L146.276 37.4569C148.536 43.7535 150.151 49.4044 150.635 51.3418C151.12 48.7586 153.057 43.1077 155.317 37.4569L161.13 22.1189H175.176L156.77 65.7111H143.531L126.417 22.1189Z" fill="white"/>
<path d="M173.077 7.58827C173.077 3.22905 176.468 0 180.827 0C185.025 0 188.415 3.3905 188.415 7.58827C188.415 11.786 185.025 15.338 180.827 15.338C176.468 15.338 173.077 11.9475 173.077 7.58827ZM174.046 22.119H187.446V65.8726H174.046V22.119Z" fill="white"/>
<path d="M193.743 43.9151C193.743 30.3531 202.946 20.8274 216.185 20.8274C229.908 20.8274 238.465 29.8687 238.465 44.0766V47.4671H206.659C207.466 53.2793 210.696 55.8626 216.669 55.8626C221.674 55.8626 225.388 54.0866 226.356 50.8576H238.627C237.012 60.5447 228.455 66.8414 216.508 66.8414C203.107 66.8414 193.743 57.3157 193.743 43.9151ZM206.821 39.233H225.065C225.065 34.5509 221.674 31.6447 216.185 31.6447C210.857 31.6447 207.951 33.905 206.821 39.233Z" fill="white"/>
<path fill-rule="evenodd" clip-rule="evenodd" d="M250.09 65.7112V33.2592H241.856V22.119H250.09V8.55701H263.49V22.119H271.725V33.2592H263.49V65.7112H250.09ZM276.084 52.9565C276.084 44.8839 281.735 39.8788 292.229 39.0716L304.499 38.1029V37.4571C304.499 33.0978 301.916 30.8375 297.073 30.8375C291.422 30.8375 288.354 33.0978 288.354 36.9727H277.214C277.214 27.1241 285.287 20.666 297.88 20.666C310.473 20.666 317.739 27.7699 317.739 40.2018V65.7113H305.791L304.984 59.899C303.531 63.9353 297.88 66.8414 291.26 66.8414C281.896 66.8414 276.084 61.5135 276.084 52.9565ZM304.499 49.4045V46.9828L297.718 47.6286C291.906 48.1129 289.807 49.4046 289.807 52.3107C289.807 55.3783 291.745 56.9928 295.781 56.9928C300.947 56.9928 304.499 54.4096 304.499 49.4045ZM338.243 22.1191H325.65V86.7001H339.05V61.352C341.633 64.7425 347.284 67.0029 353.258 67.0029C366.174 67.0029 373.763 57.1543 373.763 43.2693C373.763 29.0615 365.206 20.666 353.097 20.666C346.8 20.666 341.311 23.4107 338.889 27.447L338.243 22.1191ZM360.039 43.9152C360.039 50.3733 356.164 54.8939 349.706 54.8939C343.571 54.8939 339.05 50.5347 339.05 43.9152C339.05 37.2956 343.409 32.9364 349.706 32.9364C356.003 32.9364 360.039 37.4571 360.039 43.9152Z" fill="url(#paint0_linear_413_5)"/>
<defs>
<linearGradient id="paint0_linear_413_5" x1="381.713" y1="49.5899" x2="261.168" y2="41.6967" gradientUnits="userSpaceOnUse">
<stop stop-color="#EF0D11"/>
<stop offset="1" stop-color="#7E0DEF"/>
</linearGradient>
</defs>
</svg>
